<svg id="Layer_1" data-name="Layer 1" xmlns="http://www.w3.org/2000/svg" viewBox="0 0 1024 1024"><defs><style>.cls-1{fill:none;stroke:#fff;stroke-miterlimit:10;stroke-width:6px;}</style></defs><title>planet-light</title><path class="cls-1" d="M709.87,540a191.12,191.12,0,0,1-5,24.24A197.27,197.27,0,0,1,695.46,591"/><path class="cls-1" d="M704.4,458a198.82,198.82,0,0,1,5.51,81.81"/><path class="cls-1" d="M326.89,440.93A201.9,201.9,0,0,1,352.46,394a192,192,0,0,1,18.44-21.65,186.68,186.68,0,0,1,19-17,199,199,0,0,1,308.89,85.77"/><path class="cls-1" d="M417.09,686.33l-3.77-2.1a198.23,198.23,0,0,1-89.91-111.57c-1.4-4.25-2.62-8.57-3.69-12.93a199.28,199.28,0,0,1-5.1-66.22"/><path class="cls-1" d="M628.09,674.17a2.86,2.86,0,0,1-.44.3,199.16,199.16,0,0,1-190.79,21.36"/><path class="cls-1" d="M695.46,591a201.17,201.17,0,0,1-28.79,47.19"/><path class="cls-1" d="M390,355.34h0C204,261.48,59.86,213.74,40.68,244.37c-17.07,32.15,97.89,134.18,273.94,249.14,47.82,31.23,100.14,63.41,155.57,95.41q20.4,11.76,40.5,23,8.76,4.93,17.41,9.69c34.1,18.84,67.44,36.51,99.55,52.84,189,95.93,336.23,145.15,355.67,114.15,17-32.11-97.66-134-273.41-248.77l0,.15-5,24.24-.11.55c103.8,72,167.92,132.7,157.13,153.69-16.48,25.54-151.7-23.43-316.1-112.19-5.84-3.14-11.75-6.35-17.66-9.61-15.49-8.5-31.23-17.36-47.08-26.53C288.68,459.11,146.44,345,162.15,314.51c12.67-19.7,95.93,4.91,208.71,57.83"/><path class="cls-1" d="M545.61,582c-17.25-9.16-35-19-53.14-29.41-68.73-39.69-127.71-80-165.58-111.67-31.78-26.61-48.67-47.19-44-56.36,5.51-8.53,31.3-4.4,69.55,9.46"/><path class="cls-1" d="M563,591.07c39,20,74.57,36.14,103.69,47.11C708.5,654,737,659.1,742.76,650.08c4.84-9.46-13.38-31.15-47.3-59.09"/><path class="cls-1" d="M704.4,458c54.73-53.88,94.16-95.34,102.84-104.55l15.59,15.93,37.81-76.49-77.12,36.43,14,14.31c-11.64,11.86-48.78,49.4-98.74,97.44-44,42.31-98,92.75-153.21,140.9-5.8,5.07-17.51,14.67-17.51,14.67l17.66,9.61c5.76-5.06,11.53-10.12,17.22-15.22C614.38,545.28,663.64,498.2,704.4,458Z"/><path class="cls-1" d="M319.68,559.73C297,585.93,181.37,724.5,229.26,775.13c32.4,34.26,114.77-9.09,207.6-79.3,29.78-22.54,60.64-47.82,91.24-74.2"/><path class="cls-1" d="M510.69,611.94c-31.93,26.94-63.67,52.4-93.6,74.39C338.27,744.24,272.16,778.09,249,751.44c-29.27-53,55.94-155.13,74.31-178.78"/></svg>